<svg width="368" height="131" viewBox="0 0 368 131" fill="none" xmlns="http://www.w3.org/2000/svg">
<rect x="125" width="243" height="131" fill="#0F1817"/>
<path d="M12.48 45.616C12.48 44.0373 13.0133 42.8213 14.08 41.968C15.1467 41.072 16.6187 40.624 18.496 40.624V62.576L41.856 40.624C42.5813 41.2213 43.1787 41.8613 43.648 42.544C44.1173 43.184 44.352 43.76 44.352 44.272C44.352 45.3387 43.712 46.4693 42.432 47.664L27.456 61.744L46.784 84.912C46.3147 85.424 45.76 85.8293 45.12 86.128C44.5227 86.4267 43.9253 86.576 43.328 86.576C41.664 86.576 40.32 85.9787 39.296 84.784L23.104 65.584L18.496 69.872V81.776C18.496 83.3973 18.0053 84.6133 17.024 85.424C16.0427 86.192 14.528 86.576 12.48 86.576V45.616ZM67.0315 86.576C64.4288 86.576 62.1035 86.0853 60.0555 85.104C58.0075 84.08 56.4075 82.6933 55.2555 80.944C54.1035 79.152 53.5275 77.1467 53.5275 74.928V65.456C53.5275 63.1947 54.1248 61.1467 55.3195 59.312C56.5568 57.4773 58.1995 56.048 60.2475 55.024C62.3382 53.9573 64.5995 53.424 67.0315 53.424C69.4635 53.424 71.6822 53.936 73.6875 54.96C75.7355 55.984 77.3355 57.392 78.4875 59.184C79.6822 60.976 80.2795 63.0027 80.2795 65.264V69.36C80.2795 70.0427 80.0235 70.6187 79.5115 71.088C78.9995 71.5573 78.3808 71.792 77.6555 71.792H58.9675V74.672C58.9675 76.848 59.6502 78.5973 61.0155 79.92C62.4235 81.2427 64.4288 81.904 67.0315 81.904C69.6342 81.904 71.6182 81.328 72.9835 80.176C74.3488 79.024 75.0315 77.4667 75.0315 75.504C76.3115 75.4187 77.3782 75.6747 78.2315 76.272C79.1275 76.8267 79.5755 77.6587 79.5755 78.768C79.5755 80.1333 78.9782 81.4133 77.7835 82.608C76.6315 83.8027 75.0955 84.7627 73.1755 85.488C71.2555 86.2133 69.2075 86.576 67.0315 86.576ZM75.0955 67.44V65.264C75.0955 63.1307 74.3488 61.4027 72.8555 60.08C71.4048 58.7147 69.4635 58.032 67.0315 58.032C64.5995 58.032 62.6368 58.7147 61.1435 60.08C59.6928 61.4027 58.9675 63.1307 58.9675 65.264V67.44H75.0955ZM87.9285 99.312C85.2832 99.312 83.8965 97.776 83.7685 94.704C85.0485 94.8747 85.9658 94.96 86.5205 94.96C88.3978 94.96 89.8912 94.4053 91.0005 93.296C92.1525 92.1867 93.3258 90.2667 94.5205 87.536L95.8005 84.656L83.1925 53.872C83.4912 53.744 83.8752 53.6373 84.3445 53.552C84.8565 53.4667 85.2832 53.424 85.6245 53.424C86.5205 53.4667 87.3312 53.7227 88.0565 54.192C88.7818 54.6187 89.2938 55.1947 89.5925 55.92L98.1685 77.808L97.2725 80.368L97.6565 80.56L107.385 55.92C107.683 55.152 108.174 54.5547 108.857 54.128C109.582 53.6587 110.393 53.424 111.289 53.424C111.673 53.424 112.099 53.4667 112.569 53.552C113.081 53.6373 113.465 53.744 113.721 53.872L99.3205 89.136C97.9125 92.5493 96.3338 95.088 94.5845 96.752C92.8352 98.4587 90.6165 99.312 87.9285 99.312ZM137.605 44.016C137.605 43.2053 137.904 42.544 138.501 42.032C139.098 41.4773 139.824 41.2 140.677 41.2H169.221C169.221 42.992 168.858 44.3147 168.133 45.168C167.408 46.0213 166.298 46.448 164.805 46.448H143.621V60.464H161.541C161.541 62.256 161.178 63.5787 160.453 64.432C159.728 65.2853 158.618 65.712 157.125 65.712H143.621V81.712C143.621 83.376 143.13 84.6133 142.149 85.424C141.168 86.192 139.653 86.576 137.605 86.576V44.016ZM175.954 48.624C174.759 48.624 173.757 48.24 172.946 47.472C172.135 46.704 171.73 45.744 171.73 44.592C171.73 43.44 172.135 42.5013 172.946 41.776C173.757 41.008 174.759 40.624 175.954 40.624C177.106 40.624 178.087 41.008 178.898 41.776C179.709 42.5013 180.114 43.44 180.114 44.592C180.114 45.744 179.709 46.704 178.898 47.472C178.087 48.24 177.106 48.624 175.954 48.624ZM173.138 57.52C173.138 56.112 173.586 55.088 174.482 54.448C175.421 53.7653 176.829 53.424 178.706 53.424V82.48C178.706 83.888 178.237 84.9333 177.298 85.616C176.402 86.256 175.015 86.576 173.138 86.576V57.52ZM189.105 58.16C189.105 55.0027 190.897 53.424 194.481 53.424V57.52C194.097 57.904 193.649 58.48 193.137 59.248L193.393 59.504C194.673 57.712 196.337 56.2613 198.385 55.152C200.433 54 202.652 53.424 205.041 53.424C208.497 53.424 211.228 54.448 213.233 56.496C215.238 58.544 216.241 61.1893 216.241 64.432V82.48C216.241 83.888 215.772 84.9333 214.833 85.616C213.937 86.256 212.55 86.576 210.673 86.576V65.008C210.673 62.96 210.097 61.3387 208.945 60.144C207.793 58.9493 206.044 58.352 203.697 58.352C202.118 58.352 200.625 58.6933 199.217 59.376C197.852 60.016 196.742 60.912 195.889 62.064C195.078 63.1733 194.673 64.3893 194.673 65.712V82.48C194.673 83.888 194.204 84.9333 193.265 85.616C192.369 86.256 190.982 86.576 189.105 86.576V58.16ZM235.167 86.576C231.497 86.576 228.532 85.5947 226.271 83.632C224.052 81.6693 222.943 79.088 222.943 75.888C222.943 72.6453 224.116 70.0427 226.463 68.08C228.809 66.0747 231.903 65.072 235.743 65.072C239.839 65.072 243.209 66.5227 245.855 69.424L246.111 69.168C245.641 68.656 245.108 68.1227 244.511 67.568V64.88C244.511 62.704 243.828 61.0187 242.463 59.824C241.097 58.6293 239.156 58.032 236.639 58.032C232.159 58.032 228.959 59.8027 227.039 63.344C226.356 63.0027 225.78 62.5547 225.311 62C224.884 61.4027 224.671 60.8053 224.671 60.208C224.671 59.056 225.247 57.968 226.399 56.944C227.551 55.8773 229.065 55.024 230.943 54.384C232.863 53.744 234.868 53.424 236.958 53.424C241.012 53.424 244.191 54.4267 246.495 56.432C248.841 58.4373 250.015 61.2107 250.015 64.752V82.288C250.015 83.7813 249.588 84.8693 248.735 85.552C247.881 86.2347 246.537 86.576 244.703 86.576V83.568C245.599 82.6293 246.089 82.0747 246.175 81.904L245.919 81.648C243.145 84.9333 239.561 86.576 235.167 86.576ZM236.127 82.16C238.772 82.16 240.841 81.6053 242.335 80.496C243.871 79.3867 244.639 77.8507 244.639 75.888C244.639 73.9253 243.892 72.368 242.399 71.216C240.905 70.064 238.857 69.488 236.255 69.488C233.823 69.488 231.903 70.064 230.495 71.216C229.129 72.3253 228.447 73.8827 228.447 75.888C228.447 77.8933 229.108 79.4507 230.431 80.56C231.796 81.6267 233.695 82.16 236.127 82.16ZM258.668 58.16C258.668 55.0027 260.46 53.424 264.044 53.424V57.52C263.66 57.904 263.212 58.48 262.7 59.248L262.956 59.504C264.236 57.712 265.9 56.2613 267.948 55.152C269.996 54 272.214 53.424 274.604 53.424C278.06 53.424 280.79 54.448 282.796 56.496C284.801 58.544 285.804 61.1893 285.804 64.432V82.48C285.804 83.888 285.334 84.9333 284.396 85.616C283.5 86.256 282.113 86.576 280.236 86.576V65.008C280.236 62.96 279.66 61.3387 278.508 60.144C277.356 58.9493 275.606 58.352 273.26 58.352C271.681 58.352 270.188 58.6933 268.78 59.376C267.414 60.016 266.305 60.912 265.452 62.064C264.641 63.1733 264.236 64.3893 264.236 65.712V82.48C264.236 83.888 263.766 84.9333 262.828 85.616C261.932 86.256 260.545 86.576 258.668 86.576V58.16ZM306.905 86.576C304.302 86.576 301.977 86.1067 299.929 85.168C297.881 84.2293 296.281 82.9067 295.129 81.2C294.02 79.4933 293.465 77.552 293.465 75.376V65.008C293.465 62.7467 294.02 60.7413 295.129 58.992C296.281 57.2427 297.86 55.8773 299.865 54.896C301.87 53.9147 304.174 53.424 306.777 53.424C309.209 53.424 311.364 53.7867 313.241 54.512C315.161 55.1947 316.654 56.176 317.721 57.456C318.788 58.736 319.321 60.1867 319.321 61.808C319.321 62.8747 318.894 63.7493 318.041 64.432C317.23 65.072 316.164 65.3493 314.841 65.264C314.841 63.216 314.094 61.552 312.601 60.272C311.15 58.992 309.252 58.352 306.905 58.352C304.558 58.352 302.66 58.992 301.209 60.272C299.758 61.5093 299.033 63.1307 299.033 65.136V75.12C299.033 77.04 299.78 78.6187 301.273 79.856C302.766 81.0507 304.686 81.648 307.033 81.648C309.38 81.648 311.278 81.008 312.729 79.728C314.222 78.448 314.969 76.8053 314.969 74.8C316.334 74.7147 317.422 74.992 318.233 75.632C319.086 76.2293 319.513 77.0827 319.513 78.192C319.513 79.8133 318.98 81.264 317.913 82.544C316.846 83.824 315.353 84.8267 313.433 85.552C311.513 86.2347 309.337 86.576 306.905 86.576ZM339.719 86.576C337.116 86.576 334.791 86.0853 332.743 85.104C330.695 84.08 329.095 82.6933 327.943 80.944C326.791 79.152 326.215 77.1467 326.215 74.928V65.456C326.215 63.1947 326.812 61.1467 328.007 59.312C329.244 57.4773 330.887 56.048 332.935 55.024C335.026 53.9573 337.287 53.424 339.719 53.424C342.151 53.424 344.37 53.936 346.375 54.96C348.423 55.984 350.023 57.392 351.175 59.184C352.37 60.976 352.967 63.0027 352.967 65.264V69.36C352.967 70.0427 352.711 70.6187 352.199 71.088C351.687 71.5573 351.068 71.792 350.343 71.792H331.655V74.672C331.655 76.848 332.338 78.5973 333.703 79.92C335.111 81.2427 337.116 81.904 339.719 81.904C342.322 81.904 344.306 81.328 345.671 80.176C347.036 79.024 347.719 77.4667 347.719 75.504C348.999 75.4187 350.066 75.6747 350.919 76.272C351.815 76.8267 352.263 77.6587 352.263 78.768C352.263 80.1333 351.666 81.4133 350.471 82.608C349.319 83.8027 347.783 84.7627 345.863 85.488C343.943 86.2133 341.895 86.576 339.719 86.576ZM347.783 67.44V65.264C347.783 63.1307 347.036 61.4027 345.543 60.08C344.092 58.7147 342.151 58.032 339.719 58.032C337.287 58.032 335.324 58.7147 333.831 60.08C332.38 61.4027 331.655 63.1307 331.655 65.264V67.44H347.783Z" fill="white"/>
</svg>
